<?xml version="1.0" encoding="UTF-8" standalone="no"?>
<!-- Created with Inkscape (http://www.inkscape.org/) -->

<svg
   width="26.617918mm"
   height="29.61515mm"
   viewBox="0 0 26.617918 29.615151"
   version="1.1"
   id="svg5"
   xmlns="http://www.w3.org/2000/svg"
   xmlns:svg="http://www.w3.org/2000/svg">
  <defs
     id="defs2">
    <rect
       x="56.128895"
       y="256.22748"
       width="377.44217"
       height="265.69138"
       id="rect113" />
    <filter
       y="-0.021254599"
       height="1.0425092"
       style="color-interpolation-filters:sRGB"
       id="filter293"
       x="-0.023761649"
       width="1.0475233">
      <feMorphology
         radius="7"
         operator="dilate"
         result="result8"
         in="SourceGraphic"
         id="feMorphology283" />
      <feComposite
         in2="result8"
         result="result10"
         in="SourceGraphic"
         operator="arithmetic"
         k1="0.5"
         k3="0.5"
         id="feComposite285"
         k2="0"
         k4="0" />
      <feTurbulence
         result="result11"
         type="fractalNoise"
         numOctaves="3"
         baseFrequency="0.07"
         id="feTurbulence287" />
      <feDisplacementMap
         result="result12"
         in2="result11"
         in="result10"
         xChannelSelector="R"
         scale="10"
         id="feDisplacementMap289"
         yChannelSelector="A" />
      <feComposite
         operator="arithmetic"
         result="result13"
         in="SourceGraphic"
         in2="result12"
         k1="0.25"
         k2="0.25"
         k3="0.75"
         id="feComposite291"
         k4="0" />
    </filter>
  </defs>
  <g
     id="layer1"
     transform="matrix(0.32600665,0,0,0.32600665,12.656392,8.3433866)">
    <path
       id="text111"
       style="font-style:normal;font-variant:normal;font-weight:normal;font-stretch:normal;font-size:64px;font-family:'URW Bookman';-inkscape-font-specification:'URW Bookman';text-align:center;white-space:pre;shape-inside:url(#rect113);fill:#ffffff;filter:url(#filter293)"
       d="m 237.99991,264.22402 c -3.264,1.28 -4.80044,1.66875 -9.08844,2.18075 v 1.98304 l 1.4079,0.12581 c 3.51999,0.448 4.22778,1.6673 4.16378,7.1713 v 27.0676 c 0,3.52 -1.15607,5.05807 -3.97207,5.31407 l -1.59961,0.12581 v 1.92313 h 17.2183 v -1.92313 l -1.59961,-0.12581 c -2.816,-0.256 -3.96608,-1.79407 -3.96608,-5.31407 V 286.8163 c 3.776,-3.51999 7.35948,-5.24816 11.07148,-5.24816 3.64799,0 5.49979,2.17635 5.49979,6.46435 v 14.72003 c 0,3.52 -1.15009,5.05807 -3.96608,5.31407 l -1.59962,0.12581 v 1.92313 h 17.21831 v -1.92313 l -1.59962,-0.12581 c -2.81599,-0.256 -3.97207,-1.79407 -3.97207,-5.31407 v -15.10346 c 0,-3.968 -0.69971,-5.82511 -2.87571,-7.29711 -1.79199,-1.216 -4.2273,-1.85124 -7.17129,-1.85124 -4.48,0 -8.4452,1.66009 -12.60519,5.30808 v -19.58477 z m -50.24102,2.30656 -3.58266,11.19729 2.04895,0.83275 c 3.83999,-6.65599 8.19289,-9.59767 14.14489,-9.59767 2.11199,0 2.81579,0.63818 2.81579,2.55818 v 29.38015 c -0.064,5.312 -0.8957,6.7195 -4.22369,7.0395 l -2.43237,0.19171 v 1.98304 h 19.71058 v -1.98304 l -2.49228,-0.19171 c -3.328,-0.384 -4.16379,-1.7275 -4.16379,-7.0395 v -29.12253 c 0,-2.24 0.51618,-2.8158 2.56418,-2.8158 5.69599,0 10.55899,3.26168 14.07899,9.59767 l 2.30056,-0.83275 -3.58265,-11.19729 z m 99.58937,11.97013 c -8.76799,0 -15.10945,6.58843 -15.10945,15.80442 0,4.28799 1.60569,8.57681 4.22968,11.5208 2.88,3.264 6.78073,4.86474 11.58072,4.86474 5.888,0 9.98224,-2.43007 13.24623,-7.99806 l -2.10885,-1.02447 c -2.368,4.22399 -5.24815,6.14083 -9.28015,6.14083 -4.544,0 -7.80977,-2.23817 -9.53777,-6.59016 -0.96,-2.24 -1.27609,-5.05368 -1.27609,-9.59768 h 22.20286 c -0.064,-3.71199 -0.89551,-6.02138 -3.00751,-8.45338 -2.56,-3.008 -6.45968,-4.66704 -10.93967,-4.66704 z m -0.32352,2.55819 c 4.672,0 7.61464,3.07006 7.61464,7.99806 h -15.35509 c 0.448,-2.688 0.82724,-3.83827 1.85124,-5.18227 1.344,-1.85599 3.32921,-2.81579 5.88921,-2.81579 z m -169.46908,62.07935 c -3.776,0 -7.87614,1.47446 -10.62814,3.71445 -2.624,2.176 -3.51675,4.54226 -3.51675,9.21425 v 3.00751 h -5.379972 v 2.11485 h 5.379972 v 21.56781 c 0,3.52 -1.15608,5.05208 -3.972073,5.30808 l -1.599613,0.1318 v 1.91714 H 115.05739 V 388.197 l -1.59962,-0.1318 c -2.81599,-0.256 -3.96608,-1.78808 -3.96608,-5.30808 v -21.56781 h 6.33255 v -2.11485 h -6.33255 v -6.78187 c 0,-2.432 0.44381,-3.84265 1.46781,-4.93065 0.832,-0.89599 2.11123,-1.4738 3.19923,-1.4738 1.088,0 2.1175,0.64123 3.0135,1.85723 0.896,1.216 1.78961,1.79133 2.94161,1.79133 1.536,0 2.94161,-1.2779 2.94161,-2.7499 0,-2.112 -2.29979,-3.64855 -5.49979,-3.64855 z m 70.78436,1.09037 c -3.264,1.28 -4.80044,1.66276 -9.08844,2.17475 v 1.98305 l 1.4079,0.12581 c 3.52,0.448 4.2218,1.6673 4.1578,7.1713 v 34.43061 h 3.58265 l 1.5397,-3.71446 c 4.224,3.2 7.10129,4.2896 11.19729,4.2896 9.08799,0 15.48689,-6.78146 15.48689,-16.44545 0,-9.216 -6.07814,-15.74451 -14.65413,-15.74451 -4.416,0 -7.42348,1.27913 -11.07148,4.60713 v -18.87783 z m 80.50785,0 c -3.2,1.28 -4.67054,1.59876 -9.02254,2.17475 v 1.98305 l 1.342,0.12581 c 3.52,0.448 4.22779,1.6673 4.16379,7.1713 v 6.20673 c -3.456,-2.368 -6.72415,-3.39094 -10.62814,-3.39094 -7.99999,0 -14.07899,6.97784 -14.07899,16.19383 0,4.032 1.34674,8.2514 3.52274,11.13139 2.24,3.008 6.14491,4.86474 10.11291,4.86474 2.048,0 4.35045,-0.5119 6.39845,-1.4079 1.856,-0.832 2.81703,-1.47284 4.67303,-3.45684 v 4.2896 h 10.74796 V 388.197 l -0.76686,-0.1318 c -2.816,-0.448 -3.83618,-1.85208 -3.90018,-5.30808 v -38.5285 z m 39.67878,0 c -3.2,1.28 -4.67054,1.59876 -9.02253,2.17475 v 1.98305 l 1.34798,0.12581 c 3.52,0.448 4.2218,1.6673 4.1578,7.1713 v 6.20673 c -3.456,-2.368 -6.71815,-3.39094 -10.62215,-3.39094 -7.99999,0 -14.08498,6.97784 -14.08498,16.19383 0,4.032 1.34675,8.2514 3.52274,11.13139 2.24,3.008 6.14492,4.86474 10.11291,4.86474 2.048,0 4.35046,-0.5119 6.39845,-1.4079 1.856,-0.832 2.81703,-1.47284 4.67303,-3.45684 v 4.2896 h 10.75395 V 388.197 l -0.77285,-0.1318 c -2.81599,-0.448 -3.83618,-1.85208 -3.90018,-5.30808 v -38.5285 z m -79.48338,4.03198 c -2.17599,0 -3.90617,1.72827 -3.90617,3.84027 0,2.176 1.73018,3.90018 3.90617,3.90018 2.112,0 3.84027,-1.72418 3.84027,-3.90018 0,-2.112 -1.72827,-3.84027 -3.84027,-3.84027 z m -95.55139,10.23872 c -4.48,0 -8.45157,1.4698 -11.01157,4.1578 -2.688,2.81599 -4.48131,7.55604 -4.48131,12.03603 0,9.664 6.20851,15.99613 15.7445,15.99613 9.27999,0 15.55279,-6.39832 15.55279,-15.87031 0,-4.16 -1.47227,-8.3851 -3.84027,-11.3291 -2.688,-3.19999 -6.97215,-4.99055 -11.96414,-4.99055 z m 41.91943,0 c -1.47199,0 -3.01121,0.32047 -4.54721,1.02447 -1.536,0.64 -1.85265,0.89276 -4.92465,3.51676 -0.192,0.128 -0.70799,0.64427 -1.34799,1.15627 v -5.12236 h -2.17475 c -3.968,0.768 -6.07958,1.02609 -9.66358,1.28209 v 1.91714 l 1.53371,0.1318 c 3.392,0.384 4.2237,1.40409 4.2237,5.30808 v 15.04355 c 0,3.52 -1.15009,5.05208 -3.96608,5.30808 l -1.59962,0.1318 v 1.91714 h 17.21831 V 388.197 l -1.59962,-0.1318 c -2.81599,-0.256 -3.97207,-1.78808 -3.97207,-5.30808 v -15.68459 c 2.304,-2.56 4.03321,-3.58266 5.88921,-3.58266 1.088,0 1.53799,0.19248 2.68999,1.02448 1.152,0.768 2.10904,1.09037 3.32504,1.09037 2.04799,0 3.58864,-1.47475 3.58864,-3.52274 0,-2.112 -1.92103,-3.58266 -4.67303,-3.58266 z m 159.6797,0 c -8.768,0 -15.10346,6.58843 -15.10346,15.80442 0,4.28799 1.5997,8.57681 4.22369,11.5208 2.88,3.264 6.78072,4.86474 11.58072,4.86474 5.88799,0 9.98822,-2.43007 13.25222,-7.99806 l -2.11484,-1.02447 c -2.368,4.22399 -5.24816,6.14083 -9.28015,6.14083 -4.544,0 -7.80977,-2.23817 -9.53777,-6.59016 -0.96,-2.24 -1.27609,-5.05368 -1.27609,-9.59768 h 22.20885 c -0.064,-3.71199 -0.89551,-6.01539 -3.00751,-8.44739 -2.56,-3.008 -6.46567,-4.67303 -10.94566,-4.67303 z m 42.11115,0 c -4.928,0 -8.64233,1.5996 -13.18632,5.6316 v -5.05646 h -2.17476 c -3.96799,0.768 -6.07958,1.02609 -9.66357,1.28209 v 1.91714 l 1.53371,0.1318 c 3.39199,0.384 4.22369,1.40409 4.22369,5.30808 v 15.04355 c 0,3.52 -1.15008,5.05208 -3.96608,5.30808 l -1.59961,0.1318 v 1.91714 h 17.2183 V 388.197 l -1.59961,-0.1318 c -2.816,-0.256 -3.97207,-1.78808 -3.97207,-5.30808 v -15.8104 c 3.96799,-3.584 7.74509,-5.37398 11.32909,-5.37398 3.52,0 5.43988,2.23845 5.43988,6.39845 v 14.78593 c 0,3.52 -1.21408,5.05208 -3.96608,5.30808 l -1.59961,0.1318 v 1.91714 h 17.21231 V 388.197 l -1.59961,-0.1318 c -2.816,-0.256 -3.96608,-1.78808 -3.96608,-5.30808 v -15.8104 c 0,-5.312 -3.58359,-8.4474 -9.66358,-8.4474 z m -147.39203,0.57514 c -3.904,0.704 -6.01397,1.02609 -9.40596,1.28209 v 1.91714 l 1.27609,0.1318 c 3.392,0.384 4.2237,1.40409 4.2237,5.30808 v 15.04355 c 0,3.52 -1.15009,5.05208 -3.96608,5.30808 l -1.59962,0.1318 v 1.91714 h 17.15241 V 388.197 l -1.53971,-0.1318 c -2.81599,-0.256 -3.96608,-1.78808 -3.96608,-5.30808 v -23.68266 z m -96.25834,1.98304 c 5.75999,0 9.22024,5.247 9.22024,14.07899 0,8.128 -3.33063,12.99461 -8.96263,12.99461 -5.95199,0 -9.28015,-4.92976 -9.28015,-13.56975 0,-8.19199 3.51854,-13.50385 9.02254,-13.50385 z m 201.2157,0 c 4.67199,0 7.62063,3.07007 7.62063,7.99807 h -15.36108 c 0.448,-2.688 0.83323,-3.83827 1.85723,-5.18227 1.344,-1.856 3.32322,-2.8158 5.88322,-2.8158 z m -78.14138,0.32352 c 3.07199,0 5.18501,0.96027 8.70501,3.84027 v 17.34412 c -2.88,3.51999 -5.63435,5.05046 -9.15434,5.05046 -3.328,0 -5.95311,-1.65904 -7.29711,-4.66704 -1.088,-2.36799 -1.72543,-5.37948 -1.72543,-8.38748 0,-2.88 0.57752,-5.88578 1.66552,-8.18978 1.472,-3.26399 4.15835,-4.99055 7.80635,-4.99055 z m 39.67878,0 c 3.072,0 5.18501,0.96027 8.70501,3.84027 v 17.34412 c -2.88,3.51999 -5.63434,5.05046 -9.15434,5.05046 -3.328,0 -5.94712,-1.65904 -7.29112,-4.66704 -1.088,-2.36799 -1.73141,-5.37948 -1.73141,-8.38748 0,-2.88 0.57751,-5.88578 1.66551,-8.18978 1.472,-3.26399 4.15835,-4.99055 7.80635,-4.99055 z m -95.93482,0.19172 c 6.01599,0 9.72947,4.86281 9.72947,12.8628 0,8.06399 -4.03643,13.18033 -10.43642,13.18033 -3.456,0 -6.33292,-1.15066 -8.76492,-3.58265 v -17.46993 c 3.264,-3.712 5.75987,-4.99055 9.47187,-4.99055 z m 75.84081,62.65449 c -3.264,1.28 -4.80044,1.66275 -9.08844,2.17475 v 1.98304 l 1.4079,0.13181 c 3.52,0.448 4.2218,1.66131 4.1578,7.1653 v 34.43062 h 3.58265 l 1.5397,-3.70847 c 4.224,3.2 7.10129,4.28361 11.19729,4.28361 9.08799,0 15.48689,-6.78147 15.48689,-16.44546 0,-9.21599 -6.07814,-15.7445 -14.65413,-15.7445 -4.416,0 -7.42348,1.27913 -11.07148,4.60713 v -18.87783 z m -128.58011,14.2707 c -4.92799,0 -8.63633,1.5996 -13.18033,5.6316 v -5.05646 h -2.17475 c -3.968,0.768 -6.07958,1.02609 -9.66358,1.28209 v 1.91714 l 1.53371,0.1318 c 3.392,0.384 4.2237,1.40408 4.2237,5.30808 v 15.04355 c 0,3.52 -1.15008,5.05208 -3.96608,5.30808 l -1.59961,0.1318 v 1.91714 h 17.21231 v -1.91714 l -1.59961,-0.1318 c -2.816,-0.256 -3.96609,-1.78808 -3.96609,-5.30808 v -15.81041 c 3.968,-3.58399 7.7451,-5.37398 11.3291,-5.37398 3.51999,0 5.43988,2.23846 5.43988,6.39846 v 14.78593 c 0,3.52 -1.22008,5.05208 -3.97207,5.30808 l -1.59962,0.1318 v 1.91714 h 17.21831 v -1.91714 l -1.59962,-0.1318 c -2.81599,-0.256 -3.96608,-1.78808 -3.96608,-5.30808 v -15.81041 c 0,-5.31199 -3.58957,-8.44739 -9.66957,-8.44739 z m 83.84487,0 c -4.54399,0 -7.55661,1.28074 -11.65261,4.86474 v -4.2896 h -2.17475 c -3.712,0.704 -5.69587,0.96209 -9.47187,1.28209 v 1.91714 l 1.34799,0.1318 c 3.392,0.384 4.2237,1.40408 4.2237,5.30808 v 15.04355 c 0,3.52 -1.15608,5.05208 -3.97207,5.30808 l -1.59962,0.1318 v 1.91714 h 16.76898 v -1.91714 l -1.15028,-0.1318 c -2.816,-0.256 -3.97208,-1.78808 -3.97208,-5.30808 v -16.51136 c 3.712,-3.2 6.21225,-4.41541 9.22024,-4.41541 3.648,0 5.24817,2.10988 5.24817,6.78188 v 14.14489 c 0,3.52 -1.15607,5.05208 -3.97207,5.30808 l -1.342,0.1318 v 1.91714 h 16.70307 v -1.91714 l -1.34199,-0.1318 c -2.816,-0.256 -3.96608,-1.78808 -3.96608,-5.30808 v -16.51136 c 3.90399,-3.264 6.46196,-4.41541 9.40596,-4.41541 3.32799,0 5.05645,2.3656 5.05645,6.97359 v 13.95318 c 0,3.52 -1.15607,5.05208 -3.97207,5.30808 l -1.15028,0.1318 v 1.91714 h 16.76897 v -1.91714 l -1.59961,-0.1318 c -2.816,-0.256 -3.96608,-1.78808 -3.96608,-5.30808 v -15.6786 c 0,-5.376 -3.1373,-8.5792 -8.5133,-8.5792 -4.28799,0 -7.55385,1.41007 -12.16185,5.31407 -1.728,-3.84 -4.15692,-5.31407 -8.76492,-5.31407 z m 92.92732,0 c -8.76799,0 -15.10346,6.59442 -15.10346,15.81041 0,4.28799 1.5997,8.5768 4.22369,11.5208 2.88,3.264 6.78073,4.85875 11.58072,4.85875 5.88799,0 9.98823,-2.43007 13.25222,-7.99806 l -2.11484,-1.02447 c -2.368,4.22399 -5.24816,6.14682 -9.28015,6.14682 -4.544,0 -7.80977,-2.24416 -9.53777,-6.59615 -0.96,-2.24 -1.27609,-5.05368 -1.27609,-9.59768 h 22.20885 c -0.064,-3.712 -0.89551,-6.01539 -3.00751,-8.44739 -2.56,-3.008 -6.46567,-4.67303 -10.94566,-4.67303 z m 39.74468,0 c -1.472,0 -3.01121,0.32047 -4.54721,1.02447 -1.536,0.64 -1.85266,0.89875 -4.92465,3.52275 -0.192,0.128 -0.70799,0.63828 -1.34799,1.15028 v -5.12236 h -2.17476 c -3.96799,0.768 -6.07958,1.02609 -9.66357,1.28209 v 1.91714 l 1.53371,0.1318 c 3.39199,0.384 4.22369,1.40408 4.22369,5.30808 v 15.04355 c 0,3.52 -1.15008,5.05208 -3.96608,5.30808 l -1.59961,0.1318 v 1.91714 h 17.2183 v -1.91714 l -1.59961,-0.1318 c -2.816,-0.256 -3.97207,-1.78808 -3.97207,-5.30808 v -15.6786 c 2.304,-2.56 4.03321,-3.58865 5.88921,-3.58865 1.088,0 1.53799,0.19248 2.68998,1.02447 1.152,0.768 2.10904,1.09038 3.32504,1.09038 2.048,0 3.58266,-1.47475 3.58266,-3.52275 0,-2.11199 -1.91504,-3.58265 -4.66704,-3.58265 z m -189.63498,0.57514 c -3.328,0.768 -4.73559,0.96209 -9.66358,1.28209 v 1.91714 l 1.53371,0.1318 c 3.39199,0.384 4.22969,1.40408 4.22969,5.30808 v 13.37803 c 0,3.2 0.57095,4.99207 2.04295,6.65607 1.728,1.984 4.16082,2.94161 7.48882,2.94161 4.608,0 8.06575,-1.53313 13.56975,-5.94912 v 5.37398 h 11.64662 v -1.91714 l -1.59962,-0.1318 c -2.81599,-0.256 -3.96608,-1.78808 -3.96608,-5.30808 v -23.68266 h -2.17475 c -3.328,0.768 -4.61357,0.89809 -9.66957,1.28209 v 1.91714 l 1.5397,0.1318 c 3.392,0.384 4.2237,1.40408 4.2237,5.30808 v 14.27669 c -4.352,3.776 -8.00328,5.6316 -11.20328,5.6316 -4.032,0 -5.82331,-2.1755 -5.82331,-7.0395 v -21.5079 z m 149.56678,1.98304 c 4.67199,0 7.62063,3.07606 7.62063,8.00406 h -15.36108 c 0.448,-2.688 0.83323,-3.84426 1.85723,-5.18826 1.344,-1.856 3.32322,-2.8158 5.88322,-2.8158 z m -35.83851,0.51523 c 6.01599,0 9.72947,4.86282 9.72947,12.86281 0,8.06399 -4.03043,13.18632 -10.43043,13.18632 -3.456,0 -6.33891,-1.15665 -8.77091,-3.58865 V 446.5619 c 3.264,-3.712 5.75987,-4.99056 9.47187,-4.99056 z m -70.50279,96.31826 c -1.40884,0.56354 -2.06202,0.70497 -3.97806,0.95857 v 0.8687 l 0.59312,0.0599 c 1.54973,0.19724 1.86144,0.72808 1.83326,3.1513 v 11.92221 c 0,1.54973 -0.5096,2.2238 -1.74939,2.33651 l -0.67699,0.0599 v 0.84474 h 7.49482 v -0.84474 l -0.64704,-0.0599 c -1.23979,-0.11271 -1.7434,-0.78678 -1.7434,-2.33651 V 537.8896 Z m 31.10558,0 c -1.43702,0.56354 -2.11417,0.73315 -4.00202,0.95857 v 0.8687 l 0.61707,0.0599 c 1.54974,0.19724 1.86145,0.72808 1.83327,3.1513 v 11.92221 c 0,1.54973 -0.50361,2.2238 -1.7434,2.33651 l -0.70694,0.0599 v 0.84474 h 7.57868 v -0.84474 l -0.7309,-0.0599 c -1.18344,-0.0845 -1.69126,-0.78678 -1.71944,-2.33651 v -2.33652 l 2.28259,-1.94709 2.95959,4.28361 c 0.45083,0.64807 0.73091,1.29677 0.73091,1.71943 0,0.3663 -0.27942,0.56072 -0.81479,0.61708 l -0.76086,0.0599 v 0.84474 h 7.60864 v -0.90465 c -1.29614,-0.22542 -2.37235,-0.95584 -3.4149,-2.33651 l -4.19374,-6.00305 1.26411,-1.12631 c 1.69062,-1.49338 3.04306,-2.11222 5.40993,-2.45035 v -0.84474 h -7.49482 v 0.81479 c 1.09891,0.0845 1.58164,0.36507 1.58164,0.92861 0,0.33812 -0.14097,0.53704 -0.76086,1.0724 l -4.39744,3.83428 v -13.1863 z m -45.98737,0.64703 c -2.25415,0 -4.90132,1.2377 -6.62012,3.09738 -1.71879,1.8315 -2.64804,4.31297 -2.64804,6.96161 0,5.66357 4.22523,9.86128 9.94515,9.86128 3.66301,0 6.51208,-1.60641 8.59717,-4.84676 l -1.21618,-0.67699 c -0.81713,1.21161 -1.37672,1.834 -2.30656,2.51025 -1.35249,1.01437 -3.18386,1.65952 -4.64906,1.65952 -1.77515,0 -3.77894,-0.93009 -4.99055,-2.28259 -1.32432,-1.4652 -2.05494,-3.69056 -2.05494,-6.25467 0,-5.0155 2.76297,-8.67505 6.48233,-8.67505 2.0851,0 4.14131,1.15317 5.4938,3.09738 0.53536,0.78895 0.89809,1.38167 1.7434,2.95958 h 0.90465 l -1.35398,-6.79386 h -0.92861 l -0.59312,1.18623 c -1.66244,-1.26796 -3.38212,-1.80331 -5.80534,-1.80331 z m 72.44389,0.76087 c 0.0282,3.46576 -1.21073,5.01564 -3.97207,5.12834 v 0.92862 h 2.36646 v 9.44191 c 0,1.38067 0.39241,2.25225 1.29407,2.81579 0.7326,0.47901 1.72355,0.73091 2.73792,0.73091 1.66244,0 2.9577,-0.64674 3.97207,-1.97106 l -0.76087,-0.62307 c -0.95801,1.09891 -1.60503,1.46781 -2.45034,1.46781 -1.43702,0 -2.11484,-1.15634 -2.11484,-3.72044 v -8.14185 h 4.02599 v -0.92862 h -4.02599 v -5.12834 z m -49.2525,0.36545 c -0.95801,0 -1.71943,0.75964 -1.71943,1.68948 0,0.95802 0.76142,1.71943 1.71943,1.71943 0.92984,0 1.68948,-0.76141 1.68948,-1.71943 0,-0.92984 -0.75964,-1.68948 -1.68948,-1.68948 z m 11.97613,4.50528 c -2.05692,0 -3.69329,0.62165 -4.87672,1.83326 -1.26797,1.32432 -2.00102,3.24339 -2.00102,5.27213 0,4.22655 2.78964,7.06945 6.93166,7.06945 2.70499,0 4.59176,-1.01274 6.05696,-3.29508 l -0.81478,-0.50924 c -1.57791,2.00057 -2.73256,2.678 -4.45136,2.678 -2.93041,0 -4.84677,-2.31317 -4.84677,-5.83529 0,-1.57791 0.27942,-2.95704 0.81479,-4.05594 0.64807,-1.3525 1.75134,-2.02498 3.30107,-2.02498 1.4652,0 2.78584,0.87103 2.78584,1.85723 l -0.024,0.98852 c 0,0.81713 0.58655,1.43186 1.43186,1.43186 0.81713,0 1.43786,-0.64824 1.43786,-1.52173 0,-0.95801 -0.59124,-1.91123 -1.60561,-2.67201 -1.12708,-0.81713 -2.4492,-1.21618 -4.13982,-1.21618 z m 51.08576,0 c -1.97239,0 -3.71969,0.64983 -4.84677,1.83326 -1.18343,1.23979 -1.97106,3.32371 -1.97106,5.2961 0,4.25472 2.7273,7.04548 6.92567,7.04548 4.08566,0 6.84778,-2.81538 6.84778,-6.98557 0,-1.83151 -0.64693,-3.69441 -1.68948,-4.99055 -1.18343,-1.40885 -3.06834,-2.19872 -5.26614,-2.19872 z m -62.72639,0.25761 c -1.71879,0.30995 -2.64644,0.45045 -4.13982,0.56316 v 0.84474 l 0.56316,0.0539 c 1.49338,0.16906 1.86322,0.62371 1.86322,2.34251 v 6.62012 c 0,1.54973 -0.5096,2.2238 -1.74939,2.33651 l -0.70694,0.0599 v 0.84474 h 7.55472 v -0.84474 l -0.67699,-0.0599 c -1.23979,-0.11271 -1.74939,-0.78678 -1.74939,-2.33651 v -10.42445 z m 62.75035,0.8747 c 2.53593,0 4.06194,2.30633 4.06194,6.19475 0,3.57848 -1.46853,5.72146 -3.94811,5.72146 -2.62046,0 -4.0859,-2.16919 -4.0859,-5.97308 0,-3.60666 1.54885,-5.94313 3.97207,-5.94313 z m -58.52066,29.21839 c 0.0282,3.46577 -1.21073,5.01564 -3.97207,5.12835 v 0.92861 h 2.36647 v 9.44191 c 0,1.38067 0.3924,2.25226 1.29407,2.8158 0.7326,0.47901 1.71755,0.73091 2.73192,0.73091 1.66244,0 2.96369,-0.64674 3.97806,-1.97106 l -0.76086,-0.62307 c -0.95802,1.0989 -1.61103,1.46781 -2.45634,1.46781 -1.43702,0 -2.10885,-1.15634 -2.10885,-3.72045 v -8.14185 h 4.02599 v -0.92861 h -4.02599 v -5.12835 z m 40.60141,0 c 0.0282,3.46577 -1.21073,5.01564 -3.97208,5.12835 v 0.92861 h 2.36647 v 9.44191 c 0,1.38067 0.39241,2.25226 1.29407,2.8158 0.7326,0.47901 1.72354,0.73091 2.73791,0.73091 1.66245,0 2.95771,-0.64674 3.97208,-1.97106 l -0.76087,-0.62307 c -0.95801,1.0989 -1.60503,1.46781 -2.45034,1.46781 -1.43703,0 -2.11484,-1.15634 -2.11484,-3.72045 v -8.14185 h 4.02599 v -0.92861 h -4.02599 v -5.12835 z m -52.52362,4.87073 c -2.90223,0 -5.15231,1.80535 -5.15231,4.11586 0,1.77515 1.21298,2.81588 4.19973,3.57666 l 3.60662,0.90465 c 1.40885,0.3663 2.05494,0.95557 2.05494,1.85723 0,1.49338 -1.55148,2.59413 -3.63658,2.59413 -1.74697,0 -3.46273,-0.76301 -4.50527,-2.03097 -0.50719,-0.59172 -0.79176,-1.15196 -1.18623,-2.22268 h -0.95857 l 0.95857,5.01451 h 0.92861 l 0.31154,-1.18623 c 1.52155,1.15526 2.67555,1.55169 4.53523,1.55169 3.38123,0 5.86524,-1.94473 5.86524,-4.56519 0,-1.91603 -1.13125,-3.04486 -3.58265,-3.63657 l -3.91815,-0.95258 c -0.70443,-0.16906 -1.01408,-0.28448 -1.32403,-0.42537 -0.53536,-0.28177 -0.8687,-0.79044 -0.8687,-1.35397 0,-1.21161 1.18331,-2.10886 2.84575,-2.10886 2.14145,0 4.00081,1.35068 4.93065,3.57666 h 0.89865 l -0.89865,-4.33752 h -0.79082 l -0.28158,1.01249 c -1.21161,-0.95802 -2.4259,-1.38394 -4.03199,-1.38394 z m 26.23485,0 c -3.26853,0 -6.14084,1.6948 -6.14084,3.58266 0,0.67624 0.62138,1.24014 1.35398,1.24014 0.78896,0 1.43187,-0.64889 1.43187,-1.43785 l -0.024,-0.79082 c 0,-0.81713 1.26784,-1.46182 2.84576,-1.46182 2.00056,0 3.26512,0.95631 3.26512,2.53422 v 2.25264 c -0.22541,0.0282 -0.67174,0.0874 -1.34799,0.14378 -1.77515,0.19724 -2.40053,0.28139 -3.4149,0.56316 -3.12764,0.78896 -4.73294,2.16809 -4.73294,4.05595 0,2.02874 1.83577,3.49279 4.34352,3.49279 1.91604,0 3.26446,-0.56268 5.15231,-2.16877 0.53537,1.52156 1.49485,2.16877 3.15729,2.16877 1.21161,0 2.11072,-0.33559 2.89967,-1.09637 l -0.5332,-0.7369 c -0.47901,0.42266 -0.7911,0.56316 -1.27011,0.56316 -0.59171,0 -1.0986,-0.27764 -1.32402,-0.78483 -0.19724,-0.39447 -0.25162,-0.75944 -0.25162,-1.97105 v -5.97908 c 0,-1.69062 -0.45035,-2.56314 -1.60561,-3.21121 -1.04255,-0.59171 -2.48,-0.95857 -3.80432,-0.95857 z m 19.13544,0 c -0.64807,0 -1.32476,0.14538 -2.00101,0.45532 -0.67625,0.28177 -0.82226,0.39044 -2.17476,1.5457 -0.0845,0.0564 -0.30535,0.28382 -0.58712,0.50924 v -2.25264 h -0.95857 c -1.74697,0.33812 -2.67574,0.45045 -4.25365,0.56316 v 0.84474 l 0.67699,0.0539 c 1.49338,0.16906 1.85723,0.6237 1.85723,2.3425 v 6.62012 c 0,1.54973 -0.50961,2.22381 -1.74939,2.33651 l -0.70096,0.0599 v 0.84474 h 7.57869 v -0.84474 l -0.70694,-0.0599 c -1.23979,-0.1127 -1.7434,-0.78678 -1.7434,-2.33651 V 583.17 c 1.01437,-1.12708 1.77101,-1.58164 2.58814,-1.58164 0.47901,0 0.67904,0.089 1.18623,0.45532 0.50718,0.33813 0.93244,0.4733 1.46781,0.4733 0.90166,0 1.57564,-0.64403 1.57564,-1.5457 0,-0.92984 -0.84332,-1.58164 -2.05493,-1.58164 z m -16.40352,6.90769 v 3.82829 c -1.60609,1.49338 -2.75671,2.08489 -4.19374,2.08489 -1.32432,0 -2.42638,-1.06612 -2.42638,-2.39043 0,-1.91604 2.3654,-3.15645 6.62012,-3.52275 z"
       transform="matrix(0.26458333,0,0,0.26458333,-62.857003,-93.649882)" />
  </g>
</svg>
